REM DIRINDEX 1\2\6,1\2\7,1\2\8,1\2\9,1\3\10,1\3\11,1\4\12,1\4\13,1\4\14,1\5\15,1\5\16,1\5\17
REM DIRNAME cjc020,folder01,folder02,folder03,folder04,folder05,folder06,folder07,folder08,folder09,folder10,folder11,folder12,folder13,folder14,folder15,folder16
TITLE ""
FILE "1900_2_sec02_0163_0179.mp3" MP3
  TRACK 01 AUDIO
    TITLE "0:"
    INDEX 01 00:00:00
  TRACK 02 AUDIO
    TITLE "13:cjc020_2415"
    INDEX 01 00:00:17
  TRACK 03 AUDIO
    TITLE "0:"
    INDEX 01 00:01:42
  TRACK 04 AUDIO
    TITLE "14:cjc020_2416"
    INDEX 01 00:01:46
  TRACK 05 AUDIO
    TITLE "0:"
    INDEX 01 00:05:14
  TRACK 06 AUDIO
    TITLE "13:cjc020_2417"
    INDEX 01 00:05:65
  TRACK 07 AUDIO
    TITLE "0:"
    INDEX 01 00:07:41
  TRACK 08 AUDIO
    TITLE "14:cjc020_2418"
    INDEX 01 00:07:47
  TRACK 09 AUDIO
    TITLE "0:"
    INDEX 01 00:11:05
  TRACK 10 AUDIO
    TITLE "13:cjc020_2419"
    INDEX 01 00:11:60
  TRACK 11 AUDIO
    TITLE "0:"
    INDEX 01 00:13:14
  TRACK 12 AUDIO
    TITLE "14:cjc020_2420"
    INDEX 01 00:13:16
  TRACK 13 AUDIO
    TITLE "0:"
    INDEX 01 00:16:71
  TRACK 14 AUDIO
    TITLE "13:cjc020_2421"
    INDEX 01 00:17:49
  TRACK 15 AUDIO
    TITLE "0:"
    INDEX 01 00:18:56
  TRACK 16 AUDIO
    TITLE "14:cjc020_2422"
    INDEX 01 00:18:60
  TRACK 17 AUDIO
    TITLE "0:"
    INDEX 01 00:22:54
  TRACK 18 AUDIO
    TITLE "13:cjc020_2423"
    INDEX 01 00:23:30
  TRACK 19 AUDIO
    TITLE "0:"
    INDEX 01 00:24:47
  TRACK 20 AUDIO
    TITLE "14:cjc020_2424"
    INDEX 01 00:24:53
  TRACK 21 AUDIO
    TITLE "0:"
    INDEX 01 00:28:47
  TRACK 22 AUDIO
    TITLE "13:cjc020_2425"
    INDEX 01 00:29:25
  TRACK 23 AUDIO
    TITLE "0:"
    INDEX 01 00:30:57
  TRACK 24 AUDIO
    TITLE "14:cjc020_2426"
    INDEX 01 00:30:59
  TRACK 25 AUDIO
    TITLE "0:"
    INDEX 01 00:32:00
  TRACK 26 AUDIO
    TITLE "13:cjc020_2427"
    INDEX 01 00:32:54
  TRACK 27 AUDIO
    TITLE "0:"
    INDEX 01 00:33:71
  TRACK 28 AUDIO
    TITLE "14:cjc020_2428"
    INDEX 01 00:33:73
  TRACK 29 AUDIO
    TITLE "0:"
    INDEX 01 00:35:68
  TRACK 30 AUDIO
    TITLE "13:cjc020_2429"
    INDEX 01 00:36:52
  TRACK 31 AUDIO
    TITLE "0:"
    INDEX 01 00:37:69
  TRACK 32 AUDIO
    TITLE "14:cjc020_2430"
    INDEX 01 00:37:73
  TRACK 33 AUDIO
    TITLE "0:"
    INDEX 01 00:40:17
  TRACK 34 AUDIO
    TITLE "13:cjc020_2431"
    INDEX 01 00:40:70
  TRACK 35 AUDIO
    TITLE "0:"
    INDEX 01 00:42:14
  TRACK 36 AUDIO
    TITLE "14:cjc020_2432"
    INDEX 01 00:42:19
  TRACK 37 AUDIO
    TITLE "0:"
    INDEX 01 00:45:51
  TRACK 38 AUDIO
    TITLE "13:cjc020_2433"
    INDEX 01 00:46:31
  TRACK 39 AUDIO
    TITLE "0:"
    INDEX 01 00:47:54
  TRACK 40 AUDIO
    TITLE "14:cjc020_2434"
    INDEX 01 00:47:60
  TRACK 41 AUDIO
    TITLE "0:"
    INDEX 01 00:50:15
  TRACK 42 AUDIO
    TITLE "13:cjc020_2435"
    INDEX 01 00:50:68
  TRACK 43 AUDIO
    TITLE "0:"
    INDEX 01 00:52:00
  TRACK 44 AUDIO
    TITLE "14:cjc020_2436"
    INDEX 01 00:52:04
  TRACK 45 AUDIO
    TITLE "0:"
    INDEX 01 00:53:06
  TRACK 46 AUDIO
    TITLE "13:cjc020_2437"
    INDEX 01 00:53:57
  TRACK 47 AUDIO
    TITLE "0:"
    INDEX 01 00:54:54
  TRACK 48 AUDIO
    TITLE "14:cjc020_2438"
    INDEX 01 00:54:58
  TRACK 49 AUDIO
    TITLE "0:"
    INDEX 01 00:57:45
  TRACK 50 AUDIO
    TITLE "13:cjc020_2439"
    INDEX 01 00:58:26
  TRACK 51 AUDIO
    TITLE "0:"
    INDEX 01 00:59:41
  TRACK 52 AUDIO
    TITLE "14:cjc020_2440"
    INDEX 01 00:59:43
  TRACK 53 AUDIO
    TITLE "0:"
    INDEX 01 01:04:17
  TRACK 54 AUDIO
    TITLE "13:cjc020_2441"
    INDEX 01 01:04:72
  TRACK 55 AUDIO
    TITLE "0:"
    INDEX 01 01:06:02
  TRACK 56 AUDIO
    TITLE "14:cjc020_2442"
    INDEX 01 01:06:06
  TRACK 57 AUDIO
    TITLE "0:"
    INDEX 01 01:07:27
  TRACK 58 AUDIO
    TITLE "13:cjc020_2443"
    INDEX 01 01:08:05
  TRACK 59 AUDIO
    TITLE "0:"
    INDEX 01 01:09:36
  TRACK 60 AUDIO
    TITLE "14:cjc020_2444"
    INDEX 01 01:09:38
  TRACK 61 AUDIO
    TITLE "0:"
    INDEX 01 01:13:02
  TRACK 62 AUDIO
    TITLE "13:cjc020_2445"
    INDEX 01 01:13:55
  TRACK 63 AUDIO
    TITLE "0:"
    INDEX 01 01:14:45
  TRACK 64 AUDIO
    TITLE "14:cjc020_2446"
    INDEX 01 01:14:59
  TRACK 65 AUDIO
    TITLE "0:"
    INDEX 01 01:17:30
  TRACK 66 AUDIO
    TITLE "12:cjc020_2447"
    INDEX 01 01:19:05
  TRACK 67 AUDIO
    TITLE "0:"
    INDEX 01 01:20:48
  TRACK 68 AUDIO
    TITLE "13:cjc020_2448"
    INDEX 01 01:21:51
  TRACK 69 AUDIO
    TITLE "0:"
    INDEX 01 01:23:15
  TRACK 70 AUDIO
    TITLE "14:cjc020_2449"
    INDEX 01 01:23:18
  TRACK 71 AUDIO
    TITLE "0:"
    INDEX 01 01:25:57
